<svg width="500" height="500" viewBox="0 0 500 500" fill="none" xmlns="http://www.w3.org/2000/svg">
<circle cx="255" cy="255" r="215" stroke="#596679" stroke-width="20"/>
<circle cx="250" cy="250" r="215" stroke="#374151" stroke-width="20"/>
<path d="M175.75 341C174.083 341 172.583 340.417 171.25 339.25C170.083 338.083 169.5 336.583 169.5 334.75V172.25C169.5 170.417 170.083 168.917 171.25 167.75C172.583 166.583 174.083 166 175.75 166H202.75C205.417 166 207.417 166.75 208.75 168.25C210.25 169.583 211.167 170.667 211.5 171.5L255.5 250.5L299.5 171.5C300 170.667 300.833 169.583 302 168.25C303.333 166.75 305.417 166 308.25 166H335C336.833 166 338.333 166.583 339.5 167.75C340.833 168.917 341.5 170.417 341.5 172.25V334.75C341.5 336.583 340.833 338.083 339.5 339.25C338.333 340.417 336.833 341 335 341H305.25C303.417 341 301.833 340.417 300.5 339.25C299.333 338.083 298.75 336.583 298.75 334.75V241L270.5 293.25C269.833 294.75 268.833 296.083 267.5 297.25C266.167 298.417 264.333 299 262 299H249C246.667 299 244.833 298.417 243.5 297.25C242.167 296.083 241.083 294.75 240.25 293.25L212 241V334.75C212 336.583 211.417 338.083 210.25 339.25C209.083 340.417 207.583 341 205.75 341H175.75Z" fill="#596679"/>
<path d="M170.75 336C169.083 336 167.583 335.417 166.25 334.25C165.083 333.083 164.5 331.583 164.5 329.75V167.25C164.5 165.417 165.083 163.917 166.25 162.75C167.583 161.583 169.083 161 170.75 161H197.75C200.417 161 202.417 161.75 203.75 163.25C205.25 164.583 206.167 165.667 206.5 166.5L250.5 245.5L294.5 166.5C295 165.667 295.833 164.583 297 163.25C298.333 161.75 300.417 161 303.25 161H330C331.833 161 333.333 161.583 334.5 162.75C335.833 163.917 336.5 165.417 336.5 167.25V329.75C336.5 331.583 335.833 333.083 334.5 334.25C333.333 335.417 331.833 336 330 336H300.25C298.417 336 296.833 335.417 295.5 334.25C294.333 333.083 293.75 331.583 293.75 329.75V236L265.5 288.25C264.833 289.75 263.833 291.083 262.5 292.25C261.167 293.417 259.333 294 257 294H244C241.667 294 239.833 293.417 238.5 292.25C237.167 291.083 236.083 289.75 235.25 288.25L207 236V329.75C207 331.583 206.417 333.083 205.25 334.25C204.083 335.417 202.583 336 200.75 336H170.75Z" fill="#374151"/>
<line x1="175" y1="365" x2="335" y2="365" stroke="#596679" stroke-width="10" stroke-linecap="round"/>
<line x1="170" y1="360" x2="330" y2="360" stroke="#374151" stroke-width="10" stroke-linecap="round"/>
</svg>
