<svg width="500" height="500" viewBox="0 0 500 500" fill="none" xmlns="http://www.w3.org/2000/svg">
<circle cx="255" cy="255" r="215" stroke="#596679" stroke-width="20"/>
<circle cx="250" cy="250" r="215" stroke="#374151" stroke-width="20"/>
<path d="M175.75 341C174.083 341 172.583 340.417 171.25 339.25C170.083 338.083 169.5 336.583 169.5 334.75V172.25C169.5 170.417 170.083 168.917 171.25 167.75C172.583 166.583 174.083 166 175.75 166H202.75C205.417 166 207.417 166.75 208.75 168.25C210.25 169.583 211.167 170.667 211.5 171.5L255.5 250.5L299.5 171.5C300 170.667 300.833 169.583 302 168.25C303.333 166.75 305.417 166 308.25 166H335C336.833 166 338.333 166.583 339.5 167.75C340.833 168.917 341.5 170.417 341.5 172.25V334.75C341.5 336.583 340.833 338.083 339.5 339.25C338.333 340.417 336.833 341 335 341H305.25C303.417 341 301.833 340.417 300.5 339.25C299.333 338.083 298.75 336.583 298.75 334.75V241L270.5 293.25C269.833 294.75 268.833 296.083 267.5 297.25C266.167 298.417 264.333 299 262 299H249C246.667 299 244.833 298.417 243.5 297.25C242.167 296.083 241.083 294.75 240.25 293.25L212 241V334.75C212 336.583 211.417 338.083 210.25 339.25C209.083 340.417 207.583 341 205.75 341H175.75Z" fill="#596679"/>
<path d="M170.75 336C169.083 336 167.583 335.417 166.25 334.25C165.083 333.083 164.5 331.583 164.5 329.75V167.25C164.5 165.417 165.083 163.917 166.25 162.75C167.583 161.583 169.083 161 170.75 161H197.75C200.417 161 202.417 161.75 203.75 163.25C205.25 164.583 206.167 165.667 206.5 166.5L250.5 245.5L294.5 166.5C295 165.667 295.833 164.583 297 163.25C298.333 161.75 300.417 161 303.25 161H330C331.833 161 333.333 161.583 334.5 162.75C335.833 163.917 336.5 165.417 336.5 167.25V329.75C336.5 331.583 335.833 333.083 334.5 334.25C333.333 335.417 331.833 336 330 336H300.25C298.417 336 296.833 335.417 295.5 334.25C294.333 333.083 293.75 331.583 293.75 329.75V236L265.5 288.25C264.833 289.75 263.833 291.083 262.5 292.25C261.167 293.417 259.333 294 257 294H244C241.667 294 239.833 293.417 238.5 292.25C237.167 291.083 236.083 289.75 235.25 288.25L207 236V329.75C207 331.583 206.417 333.083 205.25 334.25C204.083 335.417 202.583 336 200.75 336H170.75Z" fill="#374151"/>
<path d="M168.185 372C168.032 372 167.894 371.946 167.771 371.839C167.664 371.732 167.61 371.594 167.61 371.425V356.475C167.61 356.306 167.664 356.168 167.771 356.061C167.894 355.954 168.032 355.9 168.185 355.9H170.669C170.914 355.9 171.098 355.969 171.221 356.107C171.359 356.23 171.443 356.329 171.474 356.406L175.522 363.674L179.57 356.406C179.616 356.329 179.693 356.23 179.8 356.107C179.923 355.969 180.114 355.9 180.375 355.9H182.836C183.005 355.9 183.143 355.954 183.25 356.061C183.373 356.168 183.434 356.306 183.434 356.475V371.425C183.434 371.594 183.373 371.732 183.25 371.839C183.143 371.946 183.005 372 182.836 372H180.099C179.93 372 179.785 371.946 179.662 371.839C179.555 371.732 179.501 371.594 179.501 371.425V362.8L176.902 367.607C176.841 367.745 176.749 367.868 176.626 367.975C176.503 368.082 176.335 368.136 176.12 368.136H174.924C174.709 368.136 174.541 368.082 174.418 367.975C174.295 367.868 174.196 367.745 174.119 367.607L171.52 362.8V371.425C171.52 371.594 171.466 371.732 171.359 371.839C171.252 371.946 171.114 372 170.945 372H168.185ZM193.212 372.23C191.802 372.23 190.575 372 189.532 371.54C188.49 371.08 187.677 370.39 187.094 369.47C186.512 368.535 186.19 367.369 186.128 365.974C186.113 365.315 186.105 364.655 186.105 363.996C186.105 363.337 186.113 362.67 186.128 361.995C186.19 360.615 186.512 359.457 187.094 358.522C187.692 357.571 188.513 356.858 189.555 356.383C190.598 355.908 191.817 355.67 193.212 355.67C194.592 355.67 195.804 355.908 196.846 356.383C197.904 356.858 198.732 357.571 199.33 358.522C199.928 359.457 200.25 360.615 200.296 361.995C200.327 362.67 200.342 363.337 200.342 363.996C200.342 364.655 200.327 365.315 200.296 365.974C200.235 367.369 199.913 368.535 199.33 369.47C198.748 370.39 197.935 371.08 196.892 371.54C195.85 372 194.623 372.23 193.212 372.23ZM193.212 368.918C194.025 368.918 194.684 368.673 195.19 368.182C195.712 367.691 195.988 366.909 196.018 365.836C196.049 365.161 196.064 364.525 196.064 363.927C196.064 363.329 196.049 362.708 196.018 362.064C195.988 361.343 195.85 360.761 195.604 360.316C195.374 359.856 195.052 359.519 194.638 359.304C194.224 359.089 193.749 358.982 193.212 358.982C192.691 358.982 192.223 359.089 191.809 359.304C191.395 359.519 191.066 359.856 190.82 360.316C190.575 360.761 190.437 361.343 190.406 362.064C190.391 362.708 190.383 363.329 190.383 363.927C190.383 364.525 190.391 365.161 190.406 365.836C190.452 366.909 190.728 367.691 191.234 368.182C191.74 368.673 192.4 368.918 193.212 368.918ZM209.609 372.23C208.153 372.23 206.903 371.992 205.86 371.517C204.833 371.042 204.028 370.344 203.445 369.424C202.878 368.504 202.564 367.362 202.502 365.997C202.487 365.368 202.479 364.694 202.479 363.973C202.479 363.252 202.487 362.562 202.502 361.903C202.564 360.569 202.886 359.442 203.468 358.522C204.051 357.587 204.864 356.881 205.906 356.406C206.949 355.915 208.183 355.67 209.609 355.67C210.621 355.67 211.557 355.8 212.415 356.061C213.274 356.306 214.025 356.674 214.669 357.165C215.313 357.64 215.812 358.223 216.164 358.913C216.532 359.588 216.724 360.354 216.739 361.213C216.755 361.351 216.709 361.466 216.601 361.558C216.509 361.65 216.394 361.696 216.256 361.696H213.151C212.952 361.696 212.799 361.658 212.691 361.581C212.584 361.489 212.492 361.328 212.415 361.098C212.201 360.285 211.848 359.733 211.357 359.442C210.882 359.135 210.292 358.982 209.586 358.982C208.743 358.982 208.076 359.22 207.585 359.695C207.095 360.155 206.826 360.929 206.78 362.018C206.734 363.275 206.734 364.563 206.78 365.882C206.826 366.971 207.095 367.753 207.585 368.228C208.076 368.688 208.743 368.918 209.586 368.918C210.292 368.918 210.89 368.765 211.38 368.458C211.871 368.151 212.216 367.599 212.415 366.802C212.477 366.572 212.561 366.419 212.668 366.342C212.791 366.25 212.952 366.204 213.151 366.204H216.256C216.394 366.204 216.509 366.25 216.601 366.342C216.709 366.434 216.755 366.549 216.739 366.687C216.724 367.546 216.532 368.32 216.164 369.01C215.812 369.685 215.313 370.267 214.669 370.758C214.025 371.233 213.274 371.601 212.415 371.862C211.557 372.107 210.621 372.23 209.609 372.23ZM219.733 372C219.564 372 219.426 371.946 219.319 371.839C219.212 371.732 219.158 371.594 219.158 371.425V356.475C219.158 356.306 219.212 356.168 219.319 356.061C219.426 355.954 219.564 355.9 219.733 355.9H222.631C222.8 355.9 222.938 355.954 223.045 356.061C223.152 356.168 223.206 356.306 223.206 356.475V361.581L227.461 356.337C227.522 356.245 227.622 356.153 227.76 356.061C227.913 355.954 228.113 355.9 228.358 355.9H231.67C231.808 355.9 231.923 355.954 232.015 356.061C232.107 356.153 232.153 356.26 232.153 356.383C232.153 356.49 232.122 356.582 232.061 356.659L226.564 363.605L232.498 371.241C232.559 371.302 232.59 371.394 232.59 371.517C232.59 371.64 232.536 371.755 232.429 371.862C232.337 371.954 232.23 372 232.107 372H228.68C228.404 372 228.189 371.939 228.036 371.816C227.898 371.693 227.806 371.601 227.76 371.54L223.206 365.859V371.425C223.206 371.594 223.152 371.732 223.045 371.839C222.938 371.946 222.8 372 222.631 372H219.733ZM241.036 372.23C239.656 372.23 238.444 372.008 237.402 371.563C236.374 371.103 235.577 370.405 235.01 369.47C234.442 368.519 234.159 367.316 234.159 365.859V356.475C234.159 356.306 234.212 356.168 234.32 356.061C234.427 355.954 234.565 355.9 234.734 355.9H237.701C237.869 355.9 238.007 355.954 238.115 356.061C238.222 356.168 238.276 356.306 238.276 356.475V365.836C238.276 366.833 238.513 367.584 238.989 368.09C239.479 368.581 240.162 368.826 241.036 368.826C241.894 368.826 242.561 368.581 243.037 368.09C243.527 367.584 243.773 366.833 243.773 365.836V356.475C243.773 356.306 243.826 356.168 243.934 356.061C244.056 355.954 244.194 355.9 244.348 355.9H247.338C247.491 355.9 247.621 355.954 247.729 356.061C247.851 356.168 247.913 356.306 247.913 356.475V365.859C247.913 367.316 247.629 368.519 247.062 369.47C246.494 370.405 245.697 371.103 244.67 371.563C243.642 372.008 242.431 372.23 241.036 372.23ZM251.538 372C251.369 372 251.231 371.946 251.124 371.839C251.016 371.732 250.963 371.594 250.963 371.425V356.475C250.963 356.306 251.016 356.168 251.124 356.061C251.231 355.954 251.369 355.9 251.538 355.9H257.794C259.772 355.9 261.328 356.36 262.463 357.28C263.613 358.185 264.188 359.473 264.188 361.144C264.188 362.233 263.919 363.153 263.383 363.904C262.861 364.655 262.171 365.223 261.313 365.606L264.487 371.264C264.533 371.356 264.556 371.44 264.556 371.517C264.556 371.64 264.502 371.755 264.395 371.862C264.303 371.954 264.188 372 264.05 372H261.014C260.722 372 260.508 371.931 260.37 371.793C260.232 371.64 260.132 371.502 260.071 371.379L257.449 366.319H255.08V371.425C255.08 371.594 255.026 371.732 254.919 371.839C254.811 371.946 254.673 372 254.505 372H251.538ZM255.08 363.076H257.748C258.468 363.076 259.005 362.9 259.358 362.547C259.726 362.194 259.91 361.711 259.91 361.098C259.91 360.5 259.733 360.017 259.381 359.649C259.043 359.281 258.499 359.097 257.748 359.097H255.08V363.076ZM270.951 372C270.798 372 270.66 371.946 270.537 371.839C270.43 371.732 270.376 371.594 270.376 371.425V366.48L265.04 356.636C265.025 356.59 265.009 356.552 264.994 356.521C264.979 356.475 264.971 356.429 264.971 356.383C264.971 356.26 265.017 356.153 265.109 356.061C265.216 355.954 265.339 355.9 265.477 355.9H268.352C268.582 355.9 268.758 355.961 268.881 356.084C269.019 356.191 269.103 356.291 269.134 356.383L272.446 362.317L275.758 356.383C275.804 356.291 275.888 356.191 276.011 356.084C276.149 355.961 276.333 355.9 276.563 355.9H279.438C279.576 355.9 279.691 355.954 279.783 356.061C279.875 356.153 279.921 356.26 279.921 356.383C279.921 356.429 279.913 356.475 279.898 356.521C279.898 356.552 279.89 356.59 279.875 356.636L274.516 366.48V371.425C274.516 371.594 274.462 371.732 274.355 371.839C274.248 371.946 274.11 372 273.941 372H270.951ZM280.414 372C280.245 372 280.107 371.946 280 371.839C279.892 371.732 279.839 371.594 279.839 371.425V368.504C279.839 368.351 279.892 368.22 280 368.113C280.107 367.99 280.245 367.929 280.414 367.929H283.312C283.48 367.929 283.618 367.99 283.726 368.113C283.848 368.22 283.91 368.351 283.91 368.504V371.425C283.91 371.594 283.848 371.732 283.726 371.839C283.618 371.946 283.48 372 283.312 372H280.414ZM293.187 372.23C291.73 372.23 290.48 371.992 289.438 371.517C288.41 371.042 287.605 370.344 287.023 369.424C286.455 368.504 286.141 367.362 286.08 365.997C286.064 365.368 286.057 364.694 286.057 363.973C286.057 363.252 286.064 362.562 286.08 361.903C286.141 360.569 286.463 359.442 287.046 358.522C287.628 357.587 288.441 356.881 289.484 356.406C290.526 355.915 291.761 355.67 293.187 355.67C294.199 355.67 295.134 355.8 295.993 356.061C296.851 356.306 297.603 356.674 298.247 357.165C298.891 357.64 299.389 358.223 299.742 358.913C300.11 359.588 300.301 360.354 300.317 361.213C300.332 361.351 300.286 361.466 300.179 361.558C300.087 361.65 299.972 361.696 299.834 361.696H296.729C296.529 361.696 296.376 361.658 296.269 361.581C296.161 361.489 296.069 361.328 295.993 361.098C295.778 360.285 295.425 359.733 294.935 359.442C294.459 359.135 293.869 358.982 293.164 358.982C292.32 358.982 291.653 359.22 291.163 359.695C290.672 360.155 290.404 360.929 290.358 362.018C290.312 363.275 290.312 364.563 290.358 365.882C290.404 366.971 290.672 367.753 291.163 368.228C291.653 368.688 292.32 368.918 293.164 368.918C293.869 368.918 294.467 368.765 294.958 368.458C295.448 368.151 295.793 367.599 295.993 366.802C296.054 366.572 296.138 366.419 296.246 366.342C296.368 366.25 296.529 366.204 296.729 366.204H299.834C299.972 366.204 300.087 366.25 300.179 366.342C300.286 366.434 300.332 366.549 300.317 366.687C300.301 367.546 300.11 368.32 299.742 369.01C299.389 369.685 298.891 370.267 298.247 370.758C297.603 371.233 296.851 371.601 295.993 371.862C295.134 372.107 294.199 372.23 293.187 372.23ZM309.313 372.23C307.902 372.23 306.676 372 305.633 371.54C304.59 371.08 303.778 370.39 303.195 369.47C302.612 368.535 302.29 367.369 302.229 365.974C302.214 365.315 302.206 364.655 302.206 363.996C302.206 363.337 302.214 362.67 302.229 361.995C302.29 360.615 302.612 359.457 303.195 358.522C303.793 357.571 304.613 356.858 305.656 356.383C306.699 355.908 307.918 355.67 309.313 355.67C310.693 355.67 311.904 355.908 312.947 356.383C314.005 356.858 314.833 357.571 315.431 358.522C316.029 359.457 316.351 360.615 316.397 361.995C316.428 362.67 316.443 363.337 316.443 363.996C316.443 364.655 316.428 365.315 316.397 365.974C316.336 367.369 316.014 368.535 315.431 369.47C314.848 370.39 314.036 371.08 312.993 371.54C311.95 372 310.724 372.23 309.313 372.23ZM309.313 368.918C310.126 368.918 310.785 368.673 311.291 368.182C311.812 367.691 312.088 366.909 312.119 365.836C312.15 365.161 312.165 364.525 312.165 363.927C312.165 363.329 312.15 362.708 312.119 362.064C312.088 361.343 311.95 360.761 311.705 360.316C311.475 359.856 311.153 359.519 310.739 359.304C310.325 359.089 309.85 358.982 309.313 358.982C308.792 358.982 308.324 359.089 307.91 359.304C307.496 359.519 307.166 359.856 306.921 360.316C306.676 360.761 306.538 361.343 306.507 362.064C306.492 362.708 306.484 363.329 306.484 363.927C306.484 364.525 306.492 365.161 306.507 365.836C306.553 366.909 306.829 367.691 307.335 368.182C307.841 368.673 308.5 368.918 309.313 368.918ZM319.684 372C319.531 372 319.393 371.946 319.27 371.839C319.163 371.732 319.109 371.594 319.109 371.425V356.475C319.109 356.306 319.163 356.168 319.27 356.061C319.393 355.954 319.531 355.9 319.684 355.9H322.168C322.413 355.9 322.597 355.969 322.72 356.107C322.858 356.23 322.942 356.329 322.973 356.406L327.021 363.674L331.069 356.406C331.115 356.329 331.192 356.23 331.299 356.107C331.422 355.969 331.613 355.9 331.874 355.9H334.335C334.504 355.9 334.642 355.954 334.749 356.061C334.872 356.168 334.933 356.306 334.933 356.475V371.425C334.933 371.594 334.872 371.732 334.749 371.839C334.642 371.946 334.504 372 334.335 372H331.598C331.429 372 331.284 371.946 331.161 371.839C331.054 371.732 331 371.594 331 371.425V362.8L328.401 367.607C328.34 367.745 328.248 367.868 328.125 367.975C328.002 368.082 327.834 368.136 327.619 368.136H326.423C326.208 368.136 326.04 368.082 325.917 367.975C325.794 367.868 325.695 367.745 325.618 367.607L323.019 362.8V371.425C323.019 371.594 322.965 371.732 322.858 371.839C322.751 371.946 322.613 372 322.444 372H319.684Z" fill="#596679"/>
<path d="M167.185 371C167.032 371 166.894 370.946 166.771 370.839C166.664 370.732 166.61 370.594 166.61 370.425V355.475C166.61 355.306 166.664 355.168 166.771 355.061C166.894 354.954 167.032 354.9 167.185 354.9H169.669C169.914 354.9 170.098 354.969 170.221 355.107C170.359 355.23 170.443 355.329 170.474 355.406L174.522 362.674L178.57 355.406C178.616 355.329 178.693 355.23 178.8 355.107C178.923 354.969 179.114 354.9 179.375 354.9H181.836C182.005 354.9 182.143 354.954 182.25 355.061C182.373 355.168 182.434 355.306 182.434 355.475V370.425C182.434 370.594 182.373 370.732 182.25 370.839C182.143 370.946 182.005 371 181.836 371H179.099C178.93 371 178.785 370.946 178.662 370.839C178.555 370.732 178.501 370.594 178.501 370.425V361.8L175.902 366.607C175.841 366.745 175.749 366.868 175.626 366.975C175.503 367.082 175.335 367.136 175.12 367.136H173.924C173.709 367.136 173.541 367.082 173.418 366.975C173.295 366.868 173.196 366.745 173.119 366.607L170.52 361.8V370.425C170.52 370.594 170.466 370.732 170.359 370.839C170.252 370.946 170.114 371 169.945 371H167.185ZM192.212 371.23C190.802 371.23 189.575 371 188.532 370.54C187.49 370.08 186.677 369.39 186.094 368.47C185.512 367.535 185.19 366.369 185.128 364.974C185.113 364.315 185.105 363.655 185.105 362.996C185.105 362.337 185.113 361.67 185.128 360.995C185.19 359.615 185.512 358.457 186.094 357.522C186.692 356.571 187.513 355.858 188.555 355.383C189.598 354.908 190.817 354.67 192.212 354.67C193.592 354.67 194.804 354.908 195.846 355.383C196.904 355.858 197.732 356.571 198.33 357.522C198.928 358.457 199.25 359.615 199.296 360.995C199.327 361.67 199.342 362.337 199.342 362.996C199.342 363.655 199.327 364.315 199.296 364.974C199.235 366.369 198.913 367.535 198.33 368.47C197.748 369.39 196.935 370.08 195.892 370.54C194.85 371 193.623 371.23 192.212 371.23ZM192.212 367.918C193.025 367.918 193.684 367.673 194.19 367.182C194.712 366.691 194.988 365.909 195.018 364.836C195.049 364.161 195.064 363.525 195.064 362.927C195.064 362.329 195.049 361.708 195.018 361.064C194.988 360.343 194.85 359.761 194.604 359.316C194.374 358.856 194.052 358.519 193.638 358.304C193.224 358.089 192.749 357.982 192.212 357.982C191.691 357.982 191.223 358.089 190.809 358.304C190.395 358.519 190.066 358.856 189.82 359.316C189.575 359.761 189.437 360.343 189.406 361.064C189.391 361.708 189.383 362.329 189.383 362.927C189.383 363.525 189.391 364.161 189.406 364.836C189.452 365.909 189.728 366.691 190.234 367.182C190.74 367.673 191.4 367.918 192.212 367.918ZM208.609 371.23C207.153 371.23 205.903 370.992 204.86 370.517C203.833 370.042 203.028 369.344 202.445 368.424C201.878 367.504 201.564 366.362 201.502 364.997C201.487 364.368 201.479 363.694 201.479 362.973C201.479 362.252 201.487 361.562 201.502 360.903C201.564 359.569 201.886 358.442 202.468 357.522C203.051 356.587 203.864 355.881 204.906 355.406C205.949 354.915 207.183 354.67 208.609 354.67C209.621 354.67 210.557 354.8 211.415 355.061C212.274 355.306 213.025 355.674 213.669 356.165C214.313 356.64 214.812 357.223 215.164 357.913C215.532 358.588 215.724 359.354 215.739 360.213C215.755 360.351 215.709 360.466 215.601 360.558C215.509 360.65 215.394 360.696 215.256 360.696H212.151C211.952 360.696 211.799 360.658 211.691 360.581C211.584 360.489 211.492 360.328 211.415 360.098C211.201 359.285 210.848 358.733 210.357 358.442C209.882 358.135 209.292 357.982 208.586 357.982C207.743 357.982 207.076 358.22 206.585 358.695C206.095 359.155 205.826 359.929 205.78 361.018C205.734 362.275 205.734 363.563 205.78 364.882C205.826 365.971 206.095 366.753 206.585 367.228C207.076 367.688 207.743 367.918 208.586 367.918C209.292 367.918 209.89 367.765 210.38 367.458C210.871 367.151 211.216 366.599 211.415 365.802C211.477 365.572 211.561 365.419 211.668 365.342C211.791 365.25 211.952 365.204 212.151 365.204H215.256C215.394 365.204 215.509 365.25 215.601 365.342C215.709 365.434 215.755 365.549 215.739 365.687C215.724 366.546 215.532 367.32 215.164 368.01C214.812 368.685 214.313 369.267 213.669 369.758C213.025 370.233 212.274 370.601 211.415 370.862C210.557 371.107 209.621 371.23 208.609 371.23ZM218.733 371C218.564 371 218.426 370.946 218.319 370.839C218.212 370.732 218.158 370.594 218.158 370.425V355.475C218.158 355.306 218.212 355.168 218.319 355.061C218.426 354.954 218.564 354.9 218.733 354.9H221.631C221.8 354.9 221.938 354.954 222.045 355.061C222.152 355.168 222.206 355.306 222.206 355.475V360.581L226.461 355.337C226.522 355.245 226.622 355.153 226.76 355.061C226.913 354.954 227.113 354.9 227.358 354.9H230.67C230.808 354.9 230.923 354.954 231.015 355.061C231.107 355.153 231.153 355.26 231.153 355.383C231.153 355.49 231.122 355.582 231.061 355.659L225.564 362.605L231.498 370.241C231.559 370.302 231.59 370.394 231.59 370.517C231.59 370.64 231.536 370.755 231.429 370.862C231.337 370.954 231.23 371 231.107 371H227.68C227.404 371 227.189 370.939 227.036 370.816C226.898 370.693 226.806 370.601 226.76 370.54L222.206 364.859V370.425C222.206 370.594 222.152 370.732 222.045 370.839C221.938 370.946 221.8 371 221.631 371H218.733ZM240.036 371.23C238.656 371.23 237.444 371.008 236.402 370.563C235.374 370.103 234.577 369.405 234.01 368.47C233.442 367.519 233.159 366.316 233.159 364.859V355.475C233.159 355.306 233.212 355.168 233.32 355.061C233.427 354.954 233.565 354.9 233.734 354.9H236.701C236.869 354.9 237.007 354.954 237.115 355.061C237.222 355.168 237.276 355.306 237.276 355.475V364.836C237.276 365.833 237.513 366.584 237.989 367.09C238.479 367.581 239.162 367.826 240.036 367.826C240.894 367.826 241.561 367.581 242.037 367.09C242.527 366.584 242.773 365.833 242.773 364.836V355.475C242.773 355.306 242.826 355.168 242.934 355.061C243.056 354.954 243.194 354.9 243.348 354.9H246.338C246.491 354.9 246.621 354.954 246.729 355.061C246.851 355.168 246.913 355.306 246.913 355.475V364.859C246.913 366.316 246.629 367.519 246.062 368.47C245.494 369.405 244.697 370.103 243.67 370.563C242.642 371.008 241.431 371.23 240.036 371.23ZM250.538 371C250.369 371 250.231 370.946 250.124 370.839C250.016 370.732 249.963 370.594 249.963 370.425V355.475C249.963 355.306 250.016 355.168 250.124 355.061C250.231 354.954 250.369 354.9 250.538 354.9H256.794C258.772 354.9 260.328 355.36 261.463 356.28C262.613 357.185 263.188 358.473 263.188 360.144C263.188 361.233 262.919 362.153 262.383 362.904C261.861 363.655 261.171 364.223 260.313 364.606L263.487 370.264C263.533 370.356 263.556 370.44 263.556 370.517C263.556 370.64 263.502 370.755 263.395 370.862C263.303 370.954 263.188 371 263.05 371H260.014C259.722 371 259.508 370.931 259.37 370.793C259.232 370.64 259.132 370.502 259.071 370.379L256.449 365.319H254.08V370.425C254.08 370.594 254.026 370.732 253.919 370.839C253.811 370.946 253.673 371 253.505 371H250.538ZM254.08 362.076H256.748C257.468 362.076 258.005 361.9 258.358 361.547C258.726 361.194 258.91 360.711 258.91 360.098C258.91 359.5 258.733 359.017 258.381 358.649C258.043 358.281 257.499 358.097 256.748 358.097H254.08V362.076ZM269.951 371C269.798 371 269.66 370.946 269.537 370.839C269.43 370.732 269.376 370.594 269.376 370.425V365.48L264.04 355.636C264.025 355.59 264.009 355.552 263.994 355.521C263.979 355.475 263.971 355.429 263.971 355.383C263.971 355.26 264.017 355.153 264.109 355.061C264.216 354.954 264.339 354.9 264.477 354.9H267.352C267.582 354.9 267.758 354.961 267.881 355.084C268.019 355.191 268.103 355.291 268.134 355.383L271.446 361.317L274.758 355.383C274.804 355.291 274.888 355.191 275.011 355.084C275.149 354.961 275.333 354.9 275.563 354.9H278.438C278.576 354.9 278.691 354.954 278.783 355.061C278.875 355.153 278.921 355.26 278.921 355.383C278.921 355.429 278.913 355.475 278.898 355.521C278.898 355.552 278.89 355.59 278.875 355.636L273.516 365.48V370.425C273.516 370.594 273.462 370.732 273.355 370.839C273.248 370.946 273.11 371 272.941 371H269.951ZM279.414 371C279.245 371 279.107 370.946 279 370.839C278.892 370.732 278.839 370.594 278.839 370.425V367.504C278.839 367.351 278.892 367.22 279 367.113C279.107 366.99 279.245 366.929 279.414 366.929H282.312C282.48 366.929 282.618 366.99 282.726 367.113C282.848 367.22 282.91 367.351 282.91 367.504V370.425C282.91 370.594 282.848 370.732 282.726 370.839C282.618 370.946 282.48 371 282.312 371H279.414ZM292.187 371.23C290.73 371.23 289.48 370.992 288.438 370.517C287.41 370.042 286.605 369.344 286.023 368.424C285.455 367.504 285.141 366.362 285.08 364.997C285.064 364.368 285.057 363.694 285.057 362.973C285.057 362.252 285.064 361.562 285.08 360.903C285.141 359.569 285.463 358.442 286.046 357.522C286.628 356.587 287.441 355.881 288.484 355.406C289.526 354.915 290.761 354.67 292.187 354.67C293.199 354.67 294.134 354.8 294.993 355.061C295.851 355.306 296.603 355.674 297.247 356.165C297.891 356.64 298.389 357.223 298.742 357.913C299.11 358.588 299.301 359.354 299.317 360.213C299.332 360.351 299.286 360.466 299.179 360.558C299.087 360.65 298.972 360.696 298.834 360.696H295.729C295.529 360.696 295.376 360.658 295.269 360.581C295.161 360.489 295.069 360.328 294.993 360.098C294.778 359.285 294.425 358.733 293.935 358.442C293.459 358.135 292.869 357.982 292.164 357.982C291.32 357.982 290.653 358.22 290.163 358.695C289.672 359.155 289.404 359.929 289.358 361.018C289.312 362.275 289.312 363.563 289.358 364.882C289.404 365.971 289.672 366.753 290.163 367.228C290.653 367.688 291.32 367.918 292.164 367.918C292.869 367.918 293.467 367.765 293.958 367.458C294.448 367.151 294.793 366.599 294.993 365.802C295.054 365.572 295.138 365.419 295.246 365.342C295.368 365.25 295.529 365.204 295.729 365.204H298.834C298.972 365.204 299.087 365.25 299.179 365.342C299.286 365.434 299.332 365.549 299.317 365.687C299.301 366.546 299.11 367.32 298.742 368.01C298.389 368.685 297.891 369.267 297.247 369.758C296.603 370.233 295.851 370.601 294.993 370.862C294.134 371.107 293.199 371.23 292.187 371.23ZM308.313 371.23C306.902 371.23 305.676 371 304.633 370.54C303.59 370.08 302.778 369.39 302.195 368.47C301.612 367.535 301.29 366.369 301.229 364.974C301.214 364.315 301.206 363.655 301.206 362.996C301.206 362.337 301.214 361.67 301.229 360.995C301.29 359.615 301.612 358.457 302.195 357.522C302.793 356.571 303.613 355.858 304.656 355.383C305.699 354.908 306.918 354.67 308.313 354.67C309.693 354.67 310.904 354.908 311.947 355.383C313.005 355.858 313.833 356.571 314.431 357.522C315.029 358.457 315.351 359.615 315.397 360.995C315.428 361.67 315.443 362.337 315.443 362.996C315.443 363.655 315.428 364.315 315.397 364.974C315.336 366.369 315.014 367.535 314.431 368.47C313.848 369.39 313.036 370.08 311.993 370.54C310.95 371 309.724 371.23 308.313 371.23ZM308.313 367.918C309.126 367.918 309.785 367.673 310.291 367.182C310.812 366.691 311.088 365.909 311.119 364.836C311.15 364.161 311.165 363.525 311.165 362.927C311.165 362.329 311.15 361.708 311.119 361.064C311.088 360.343 310.95 359.761 310.705 359.316C310.475 358.856 310.153 358.519 309.739 358.304C309.325 358.089 308.85 357.982 308.313 357.982C307.792 357.982 307.324 358.089 306.91 358.304C306.496 358.519 306.166 358.856 305.921 359.316C305.676 359.761 305.538 360.343 305.507 361.064C305.492 361.708 305.484 362.329 305.484 362.927C305.484 363.525 305.492 364.161 305.507 364.836C305.553 365.909 305.829 366.691 306.335 367.182C306.841 367.673 307.5 367.918 308.313 367.918ZM318.684 371C318.531 371 318.393 370.946 318.27 370.839C318.163 370.732 318.109 370.594 318.109 370.425V355.475C318.109 355.306 318.163 355.168 318.27 355.061C318.393 354.954 318.531 354.9 318.684 354.9H321.168C321.413 354.9 321.597 354.969 321.72 355.107C321.858 355.23 321.942 355.329 321.973 355.406L326.021 362.674L330.069 355.406C330.115 355.329 330.192 355.23 330.299 355.107C330.422 354.969 330.613 354.9 330.874 354.9H333.335C333.504 354.9 333.642 354.954 333.749 355.061C333.872 355.168 333.933 355.306 333.933 355.475V370.425C333.933 370.594 333.872 370.732 333.749 370.839C333.642 370.946 333.504 371 333.335 371H330.598C330.429 371 330.284 370.946 330.161 370.839C330.054 370.732 330 370.594 330 370.425V361.8L327.401 366.607C327.34 366.745 327.248 366.868 327.125 366.975C327.002 367.082 326.834 367.136 326.619 367.136H325.423C325.208 367.136 325.04 367.082 324.917 366.975C324.794 366.868 324.695 366.745 324.618 366.607L322.019 361.8V370.425C322.019 370.594 321.965 370.732 321.858 370.839C321.751 370.946 321.613 371 321.444 371H318.684Z" fill="#374151"/>
</svg>
