<svg width="20" height="20" viewBox="0 0 20 20" fill="none" xmlns="http://www.w3.org/2000/svg">
<rect x="2" y="2" width="16" height="16" rx="1" fill="#374151"/>
<path d="M6.95 13C6.87667 13 6.81667 12.9767 6.77 12.93C6.72333 12.8833 6.7 12.8233 6.7 12.75V6.25C6.7 6.17667 6.72333 6.11667 6.77 6.07C6.81667 6.02333 6.87667 6 6.95 6H10C10.5733 6 11.0433 6.08 11.41 6.24C11.7767 6.4 12.0467 6.63 12.22 6.93C12.4 7.22333 12.49 7.57333 12.49 7.98C12.49 8.22 12.4433 8.43333 12.35 8.62C12.2633 8.8 12.1533 8.95 12.02 9.07C11.8933 9.19 11.7733 9.27667 11.66 9.33C11.9133 9.45 12.1367 9.64667 12.33 9.92C12.53 10.1933 12.63 10.5133 12.63 10.88C12.63 11.32 12.53 11.7 12.33 12.02C12.1367 12.3333 11.85 12.5767 11.47 12.75C11.0967 12.9167 10.6367 13 10.09 13H6.95ZM8.49 11.7H9.89C10.1767 11.7 10.3933 11.6167 10.54 11.45C10.6867 11.2833 10.76 11.0933 10.76 10.88C10.76 10.6467 10.6833 10.45 10.53 10.29C10.3833 10.13 10.17 10.05 9.89 10.05H8.49V11.7ZM8.49 8.78H9.8C10.0733 8.78 10.2767 8.71 10.41 8.57C10.55 8.43 10.62 8.25 10.62 8.03C10.62 7.81667 10.55 7.64333 10.41 7.51C10.2767 7.37 10.0733 7.3 9.8 7.3H8.49V8.78Z" fill="white"/>
</svg>
