<svg width="20" height="20" viewBox="0 0 20 20" fill="none" xmlns="http://www.w3.org/2000/svg">
<rect x="2" y="2" width="16" height="16" rx="1" fill="#374151"/>
<path d="M6.95 13C6.87667 13 6.81667 12.9767 6.77 12.93C6.72333 12.8833 6.7 12.8233 6.7 12.75V6.25C6.7 6.17667 6.72333 6.11667 6.77 6.07C6.81667 6.02333 6.87667 6 6.95 6H11.54C11.6133 6 11.6733 6.02333 11.72 6.07C11.7733 6.11667 11.8 6.17667 11.8 6.25V7.26C11.8 7.33333 11.7733 7.39333 11.72 7.44C11.6733 7.48667 11.6133 7.51 11.54 7.51H8.46V8.98H11.34C11.4133 8.98 11.4733 9.00667 11.52 9.06C11.5733 9.10667 11.6 9.16667 11.6 9.24V10.24C11.6 10.3067 11.5733 10.3667 11.52 10.42C11.4733 10.4667 11.4133 10.49 11.34 10.49H8.46V12.75C8.46 12.8233 8.43667 12.8833 8.39 12.93C8.34333 12.9767 8.28333 13 8.21 13H6.95Z" fill="white"/>
</svg>
