<svg width="20" height="20" viewBox="0 0 20 20" fill="none" xmlns="http://www.w3.org/2000/svg">
<rect x="2" y="2" width="16" height="16" rx="1" fill="#374151"/>
<path d="M8.95 13C8.87667 13 8.81667 12.9767 8.77 12.93C8.72333 12.8833 8.7 12.8233 8.7 12.75V6.25C8.7 6.17667 8.72333 6.11667 8.77 6.07C8.81667 6.02333 8.87667 6 8.95 6H10.29C10.3633 6 10.4233 6.02333 10.47 6.07C10.5167 6.11667 10.54 6.17667 10.54 6.25V12.75C10.54 12.8233 10.5167 12.8833 10.47 12.93C10.4233 12.9767 10.3633 13 10.29 13H8.95Z" fill="white"/>
</svg>
