<svg width="20" height="20" viewBox="0 0 20 20" fill="none" xmlns="http://www.w3.org/2000/svg">
<rect x="2" y="2" width="16" height="16" rx="1" fill="#374151"/>
<path d="M9.31 13.1C8.64333 13.1 8.09 13.0067 7.65 12.82C7.21 12.6267 6.87667 12.3767 6.65 12.07C6.42333 11.7633 6.30333 11.4367 6.29 11.09C6.29 11.0367 6.31 10.99 6.35 10.95C6.39667 10.9033 6.45 10.88 6.51 10.88H7.77C7.86333 10.88 7.93333 10.8967 7.98 10.93C8.03333 10.9633 8.08 11.0067 8.12 11.06C8.17333 11.16 8.24667 11.2567 8.34 11.35C8.44 11.4433 8.56667 11.52 8.72 11.58C8.88 11.6333 9.07667 11.66 9.31 11.66C9.69667 11.66 9.98667 11.6 10.18 11.48C10.38 11.36 10.48 11.1967 10.48 10.99C10.48 10.8433 10.4267 10.7233 10.32 10.63C10.2133 10.53 10.04 10.4433 9.8 10.37C9.56667 10.29 9.25333 10.21 8.86 10.13C8.35333 10.0233 7.92 9.88667 7.56 9.72C7.20667 9.54667 6.93667 9.32333 6.75 9.05C6.56333 8.77 6.47 8.42333 6.47 8.01C6.47 7.60333 6.58333 7.24 6.81 6.92C7.04333 6.6 7.36667 6.35 7.78 6.17C8.19333 5.99 8.68333 5.9 9.25 5.9C9.71 5.9 10.1133 5.96 10.46 6.08C10.8133 6.2 11.11 6.36 11.35 6.56C11.59 6.76 11.77 6.97333 11.89 7.2C12.0167 7.42 12.0833 7.63667 12.09 7.85C12.09 7.90333 12.07 7.95333 12.03 8C11.99 8.04 11.94 8.06 11.88 8.06H10.56C10.4867 8.06 10.4233 8.04667 10.37 8.02C10.3167 7.99333 10.27 7.95 10.23 7.89C10.19 7.74333 10.0833 7.61667 9.91 7.51C9.74333 7.39667 9.52333 7.34 9.25 7.34C8.95667 7.34 8.72667 7.39333 8.56 7.5C8.4 7.6 8.32 7.75667 8.32 7.97C8.32 8.10333 8.36333 8.22 8.45 8.32C8.54333 8.42 8.69333 8.50667 8.9 8.58C9.11333 8.65333 9.40333 8.73 9.77 8.81C10.3767 8.92333 10.8667 9.06667 11.24 9.24C11.6133 9.40667 11.8867 9.62667 12.06 9.9C12.2333 10.1667 12.32 10.5033 12.32 10.91C12.32 11.3633 12.19 11.7567 11.93 12.09C11.6767 12.4167 11.3233 12.6667 10.87 12.84C10.4167 13.0133 9.89667 13.1 9.31 13.1Z" fill="white"/>
</svg>
